<mxfile host="65bd71144e">
    <diagram id="cDjRYbi4MRZomtElbD4I" name="Page-1">
        <mxGraphModel dx="1650" dy="1643" grid="1" gridSize="10" guides="1" tooltips="1" connect="1" arrows="1" fold="1" page="1" pageScale="1" pageWidth="827" pageHeight="1169" math="0" shadow="0">
            <root>
                <mxCell id="0"/>
                <mxCell id="1" parent="0"/>
                <mxCell id="2" value="&lt;font style=&quot;font-size: 18px&quot;&gt;Bill&lt;/font&gt;" style="whiteSpace=wrap;html=1;align=center;" parent="1" vertex="1">
                    <mxGeometry x="330" y="360" width="100" height="40" as="geometry"/>
                </mxCell>
                <mxCell id="3" value="&lt;font style=&quot;font-size: 18px&quot;&gt;Booth&lt;/font&gt;" style="whiteSpace=wrap;html=1;align=center;" parent="1" vertex="1">
                    <mxGeometry x="210" y="630" width="100" height="40" as="geometry"/>
                </mxCell>
                <mxCell id="4" value="&lt;font style=&quot;font-size: 18px&quot;&gt;Restaurant&lt;/font&gt;" style="whiteSpace=wrap;html=1;align=center;" parent="1" vertex="1">
                    <mxGeometry x="620" y="100" width="100" height="40" as="geometry"/>
                </mxCell>
                <mxCell id="5" value="&lt;font style=&quot;font-size: 18px&quot;&gt;Dessert&lt;/font&gt;" style="whiteSpace=wrap;html=1;align=center;" parent="1" vertex="1">
                    <mxGeometry x="190" y="140" width="100" height="40" as="geometry"/>
                </mxCell>
                <mxCell id="8" value="contains" style="shape=rhombus;perimeter=rhombusPerimeter;whiteSpace=wrap;html=1;align=center;fontSize=18;" parent="1" vertex="1">
                    <mxGeometry x="180" y="230" width="120" height="60" as="geometry"/>
                </mxCell>
                <mxCell id="11" value="generate" style="shape=rhombus;perimeter=rhombusPerimeter;whiteSpace=wrap;html=1;align=center;fontSize=18;" parent="1" vertex="1">
                    <mxGeometry x="150" y="460" width="120" height="60" as="geometry"/>
                </mxCell>
                <mxCell id="12" value="contains" style="shape=rhombus;perimeter=rhombusPerimeter;whiteSpace=wrap;html=1;align=center;fontSize=18;" parent="1" vertex="1">
                    <mxGeometry x="640" y="450" width="120" height="60" as="geometry"/>
                </mxCell>
                <mxCell id="13" value="&lt;font style=&quot;font-size: 14px&quot;&gt;BillAmount&lt;/font&gt;" style="ellipse;whiteSpace=wrap;html=1;align=center;fontSize=18;" parent="1" vertex="1">
                    <mxGeometry x="330" y="290" width="80" height="40" as="geometry"/>
                </mxCell>
                <mxCell id="14" value="&lt;font style=&quot;font-size: 14px&quot;&gt;&lt;u&gt;&lt;b&gt;Bill_ID&lt;/b&gt;&lt;/u&gt;&lt;/font&gt;" style="ellipse;whiteSpace=wrap;html=1;align=center;fontSize=18;" parent="1" vertex="1">
                    <mxGeometry x="410" y="270" width="80" height="40" as="geometry"/>
                </mxCell>
                <mxCell id="15" value="&lt;font style=&quot;font-size: 14px&quot;&gt;MaxCapacity&lt;/font&gt;" style="ellipse;whiteSpace=wrap;html=1;align=center;fontSize=18;" parent="1" vertex="1">
                    <mxGeometry x="800" y="80" width="90" height="40" as="geometry"/>
                </mxCell>
                <mxCell id="16" value="&lt;font style=&quot;font-size: 14px&quot;&gt;&lt;u&gt;&lt;b&gt;RestaurandID&lt;/b&gt;&lt;/u&gt;&lt;/font&gt;" style="ellipse;whiteSpace=wrap;html=1;align=center;fontSize=18;" parent="1" vertex="1">
                    <mxGeometry x="590" y="20" width="100" height="40" as="geometry"/>
                </mxCell>
                <mxCell id="17" value="&lt;font style=&quot;font-size: 14px&quot;&gt;GranuityAmount&lt;/font&gt;" style="ellipse;whiteSpace=wrap;html=1;align=center;fontSize=18;" parent="1" vertex="1">
                    <mxGeometry x="340" y="450" width="110" height="40" as="geometry"/>
                </mxCell>
                <mxCell id="18" value="&lt;font style=&quot;font-size: 14px&quot;&gt;Bill_Date_time&lt;/font&gt;" style="ellipse;whiteSpace=wrap;html=1;align=center;fontSize=18;" parent="1" vertex="1">
                    <mxGeometry x="470" y="430" width="100" height="40" as="geometry"/>
                </mxCell>
                <mxCell id="21" value="&lt;font style=&quot;font-size: 14px&quot;&gt;DessertDescription&lt;/font&gt;" style="ellipse;whiteSpace=wrap;html=1;align=center;fontSize=18;" parent="1" vertex="1">
                    <mxGeometry x="70" y="10" width="140" height="40" as="geometry"/>
                </mxCell>
                <mxCell id="22" value="&lt;u&gt;&lt;font style=&quot;font-size: 14px&quot;&gt;&lt;b&gt;DessertCode&lt;/b&gt;&lt;/font&gt;&lt;/u&gt;" style="ellipse;whiteSpace=wrap;html=1;align=center;fontSize=18;" parent="1" vertex="1">
                    <mxGeometry x="260" y="70" width="90" height="40" as="geometry"/>
                </mxCell>
                <mxCell id="24" value="&lt;font style=&quot;font-size: 14px&quot;&gt;DessertName&lt;/font&gt;" style="ellipse;whiteSpace=wrap;html=1;align=center;fontSize=18;" parent="1" vertex="1">
                    <mxGeometry x="170" y="50" width="90" height="40" as="geometry"/>
                </mxCell>
                <mxCell id="26" value="" style="endArrow=none;html=1;rounded=0;fontSize=18;entryX=0.5;entryY=1;entryDx=0;entryDy=0;exitX=0.25;exitY=0;exitDx=0;exitDy=0;" parent="1" source="5" target="21" edge="1">
                    <mxGeometry relative="1" as="geometry">
                        <mxPoint x="330" y="340" as="sourcePoint"/>
                        <mxPoint x="490" y="340" as="targetPoint"/>
                    </mxGeometry>
                </mxCell>
                <mxCell id="27" value="" style="endArrow=none;html=1;rounded=0;fontSize=18;entryX=0.5;entryY=1;entryDx=0;entryDy=0;exitX=0.5;exitY=0;exitDx=0;exitDy=0;" parent="1" source="5" target="24" edge="1">
                    <mxGeometry relative="1" as="geometry">
                        <mxPoint x="330" y="340" as="sourcePoint"/>
                        <mxPoint x="490" y="340" as="targetPoint"/>
                    </mxGeometry>
                </mxCell>
                <mxCell id="28" value="" style="endArrow=none;html=1;rounded=0;fontSize=18;entryX=0.5;entryY=1;entryDx=0;entryDy=0;exitX=0.75;exitY=0;exitDx=0;exitDy=0;" parent="1" source="5" target="22" edge="1">
                    <mxGeometry relative="1" as="geometry">
                        <mxPoint x="330" y="340" as="sourcePoint"/>
                        <mxPoint x="490" y="340" as="targetPoint"/>
                    </mxGeometry>
                </mxCell>
                <mxCell id="31" value="" style="endArrow=none;html=1;rounded=0;fontSize=18;entryX=0.568;entryY=0.997;entryDx=0;entryDy=0;exitX=0.122;exitY=-0.053;exitDx=0;exitDy=0;exitPerimeter=0;entryPerimeter=0;" parent="1" source="105" target="110" edge="1">
                    <mxGeometry relative="1" as="geometry">
                        <mxPoint x="400" y="60" as="sourcePoint"/>
                        <mxPoint x="329" y="-10" as="targetPoint"/>
                    </mxGeometry>
                </mxCell>
                <mxCell id="45" value="" style="endArrow=none;html=1;rounded=0;fontSize=14;entryX=1;entryY=0.25;entryDx=0;entryDy=0;exitX=0;exitY=0.5;exitDx=0;exitDy=0;" parent="1" source="15" target="4" edge="1">
                    <mxGeometry relative="1" as="geometry">
                        <mxPoint x="330" y="340" as="sourcePoint"/>
                        <mxPoint x="490" y="340" as="targetPoint"/>
                    </mxGeometry>
                </mxCell>
                <mxCell id="46" value="" style="endArrow=none;html=1;rounded=0;fontSize=14;entryX=0.5;entryY=1;entryDx=0;entryDy=0;exitX=0.25;exitY=0;exitDx=0;exitDy=0;" parent="1" source="4" target="16" edge="1">
                    <mxGeometry relative="1" as="geometry">
                        <mxPoint x="330" y="340" as="sourcePoint"/>
                        <mxPoint x="490" y="340" as="targetPoint"/>
                    </mxGeometry>
                </mxCell>
                <mxCell id="56" value="" style="endArrow=none;html=1;rounded=0;fontSize=14;entryX=0.5;entryY=0;entryDx=0;entryDy=0;exitX=0.5;exitY=1;exitDx=0;exitDy=0;" parent="1" source="5" target="8" edge="1">
                    <mxGeometry relative="1" as="geometry">
                        <mxPoint x="655" y="150" as="sourcePoint"/>
                        <mxPoint x="650" y="320" as="targetPoint"/>
                    </mxGeometry>
                </mxCell>
                <mxCell id="57" value="1" style="resizable=0;html=1;align=right;verticalAlign=bottom;fontSize=14;" parent="56" connectable="0" vertex="1">
                    <mxGeometry x="1" relative="1" as="geometry">
                        <mxPoint x="20" as="offset"/>
                    </mxGeometry>
                </mxCell>
                <mxCell id="58" value="" style="endArrow=none;html=1;rounded=0;fontSize=14;entryX=0.5;entryY=1;entryDx=0;entryDy=0;exitX=0;exitY=0.5;exitDx=0;exitDy=0;" parent="1" source="2" target="8" edge="1">
                    <mxGeometry relative="1" as="geometry">
                        <mxPoint x="430" y="320" as="sourcePoint"/>
                        <mxPoint x="530" y="320" as="targetPoint"/>
                    </mxGeometry>
                </mxCell>
                <mxCell id="59" value="M" style="resizable=0;html=1;align=right;verticalAlign=bottom;fontSize=14;" parent="58" connectable="0" vertex="1">
                    <mxGeometry x="1" relative="1" as="geometry">
                        <mxPoint x="40" y="10" as="offset"/>
                    </mxGeometry>
                </mxCell>
                <mxCell id="60" value="" style="endArrow=none;html=1;rounded=0;fontSize=14;entryX=0.5;entryY=1;entryDx=0;entryDy=0;" parent="1" source="2" target="13" edge="1">
                    <mxGeometry relative="1" as="geometry">
                        <mxPoint x="330" y="500" as="sourcePoint"/>
                        <mxPoint x="490" y="500" as="targetPoint"/>
                    </mxGeometry>
                </mxCell>
                <mxCell id="61" value="" style="endArrow=none;html=1;rounded=0;fontSize=14;entryX=0.5;entryY=1;entryDx=0;entryDy=0;exitX=0.75;exitY=0;exitDx=0;exitDy=0;" parent="1" source="2" target="14" edge="1">
                    <mxGeometry relative="1" as="geometry">
                        <mxPoint x="330" y="500" as="sourcePoint"/>
                        <mxPoint x="490" y="500" as="targetPoint"/>
                    </mxGeometry>
                </mxCell>
                <mxCell id="62" value="" style="endArrow=none;html=1;rounded=0;fontSize=14;entryX=0.5;entryY=1;entryDx=0;entryDy=0;exitX=0.5;exitY=0;exitDx=0;exitDy=0;" parent="1" source="17" target="2" edge="1">
                    <mxGeometry relative="1" as="geometry">
                        <mxPoint x="330" y="500" as="sourcePoint"/>
                        <mxPoint x="490" y="500" as="targetPoint"/>
                    </mxGeometry>
                </mxCell>
                <mxCell id="63" value="" style="endArrow=none;html=1;rounded=0;fontSize=14;entryX=0.5;entryY=0;entryDx=0;entryDy=0;exitX=0.75;exitY=1;exitDx=0;exitDy=0;" parent="1" source="2" target="18" edge="1">
                    <mxGeometry relative="1" as="geometry">
                        <mxPoint x="330" y="500" as="sourcePoint"/>
                        <mxPoint x="490" y="500" as="targetPoint"/>
                    </mxGeometry>
                </mxCell>
                <mxCell id="64" value="" style="endArrow=none;html=1;rounded=0;fontSize=14;" parent="1" target="12" edge="1">
                    <mxGeometry relative="1" as="geometry">
                        <mxPoint x="660" y="140" as="sourcePoint"/>
                        <mxPoint x="650" y="320" as="targetPoint"/>
                        <Array as="points"/>
                    </mxGeometry>
                </mxCell>
                <mxCell id="65" value="1" style="resizable=0;html=1;align=right;verticalAlign=bottom;fontSize=14;" parent="64" connectable="0" vertex="1">
                    <mxGeometry x="1" relative="1" as="geometry">
                        <mxPoint x="-10" y="-10" as="offset"/>
                    </mxGeometry>
                </mxCell>
                <mxCell id="67" value="" style="endArrow=none;html=1;rounded=0;fontSize=14;entryX=0.5;entryY=1;entryDx=0;entryDy=0;exitX=1;exitY=0.5;exitDx=0;exitDy=0;" parent="1" source="3" target="12" edge="1">
                    <mxGeometry relative="1" as="geometry">
                        <mxPoint x="424" y="350" as="sourcePoint"/>
                        <mxPoint x="530" y="320" as="targetPoint"/>
                        <Array as="points">
                            <mxPoint x="500" y="610"/>
                        </Array>
                    </mxGeometry>
                </mxCell>
                <mxCell id="68" value="N" style="resizable=0;html=1;align=right;verticalAlign=bottom;fontSize=14;" parent="67" connectable="0" vertex="1">
                    <mxGeometry x="1" relative="1" as="geometry">
                        <mxPoint x="-30" y="10" as="offset"/>
                    </mxGeometry>
                </mxCell>
                <mxCell id="69" value="" style="endArrow=none;html=1;rounded=0;fontSize=14;exitX=0;exitY=0.75;exitDx=0;exitDy=0;entryX=0.5;entryY=0;entryDx=0;entryDy=0;" parent="1" source="2" target="11" edge="1">
                    <mxGeometry relative="1" as="geometry">
                        <mxPoint x="670" y="150" as="sourcePoint"/>
                        <mxPoint x="688.3333333333333" y="470.83333333333326" as="targetPoint"/>
                        <Array as="points"/>
                    </mxGeometry>
                </mxCell>
                <mxCell id="70" value="M" style="resizable=0;html=1;align=right;verticalAlign=bottom;fontSize=14;" parent="69" connectable="0" vertex="1">
                    <mxGeometry x="1" relative="1" as="geometry">
                        <mxPoint x="10" y="-10" as="offset"/>
                    </mxGeometry>
                </mxCell>
                <mxCell id="71" value="" style="endArrow=none;html=1;rounded=0;fontSize=14;entryX=0.5;entryY=1;entryDx=0;entryDy=0;exitX=0.5;exitY=0;exitDx=0;exitDy=0;" parent="1" source="3" target="11" edge="1">
                    <mxGeometry relative="1" as="geometry">
                        <mxPoint x="680" y="160" as="sourcePoint"/>
                        <mxPoint x="698.3333333333333" y="480.83333333333326" as="targetPoint"/>
                        <Array as="points"/>
                    </mxGeometry>
                </mxCell>
                <mxCell id="72" value="1" style="resizable=0;html=1;align=right;verticalAlign=bottom;fontSize=14;" parent="71" connectable="0" vertex="1">
                    <mxGeometry x="1" relative="1" as="geometry">
                        <mxPoint x="5" y="35" as="offset"/>
                    </mxGeometry>
                </mxCell>
                <mxCell id="73" value="&lt;font style=&quot;font-size: 14px&quot;&gt;&lt;b&gt;&lt;u&gt;BoothCode&lt;/u&gt;&lt;/b&gt;&lt;/font&gt;" style="ellipse;whiteSpace=wrap;html=1;align=center;fontSize=18;" parent="1" vertex="1">
                    <mxGeometry x="175" y="720" width="115" height="40" as="geometry"/>
                </mxCell>
                <mxCell id="74" value="&lt;font style=&quot;font-size: 14px&quot;&gt;BoothCapacity&lt;/font&gt;" style="ellipse;whiteSpace=wrap;html=1;align=center;fontSize=18;" parent="1" vertex="1">
                    <mxGeometry x="300" y="710" width="100" height="40" as="geometry"/>
                </mxCell>
                <mxCell id="75" value="&lt;font style=&quot;font-size: 14px&quot;&gt;SmokingSectionIndicator&lt;/font&gt;" style="ellipse;whiteSpace=wrap;html=1;align=center;fontSize=18;" parent="1" vertex="1">
                    <mxGeometry x="340" y="660" width="180" height="40" as="geometry"/>
                </mxCell>
                <mxCell id="78" value="" style="endArrow=none;html=1;rounded=0;fontSize=14;entryX=0;entryY=0.5;entryDx=0;entryDy=0;exitX=1;exitY=0.75;exitDx=0;exitDy=0;" parent="1" source="3" target="75" edge="1">
                    <mxGeometry relative="1" as="geometry">
                        <mxPoint x="460" y="500" as="sourcePoint"/>
                        <mxPoint x="620" y="500" as="targetPoint"/>
                    </mxGeometry>
                </mxCell>
                <mxCell id="79" value="" style="endArrow=none;html=1;rounded=0;fontSize=14;entryX=0.5;entryY=0;entryDx=0;entryDy=0;exitX=0.5;exitY=1;exitDx=0;exitDy=0;" parent="1" source="3" target="74" edge="1">
                    <mxGeometry relative="1" as="geometry">
                        <mxPoint x="460" y="500" as="sourcePoint"/>
                        <mxPoint x="620" y="500" as="targetPoint"/>
                    </mxGeometry>
                </mxCell>
                <mxCell id="80" value="" style="endArrow=none;html=1;rounded=0;fontSize=14;entryX=0.5;entryY=0;entryDx=0;entryDy=0;exitX=0.25;exitY=1;exitDx=0;exitDy=0;" parent="1" source="3" target="73" edge="1">
                    <mxGeometry relative="1" as="geometry">
                        <mxPoint x="460" y="500" as="sourcePoint"/>
                        <mxPoint x="620" y="500" as="targetPoint"/>
                    </mxGeometry>
                </mxCell>
                <mxCell id="97" value="&lt;font style=&quot;font-size: 14px&quot;&gt;DessertOfferedDateEnd&lt;/font&gt;" style="ellipse;whiteSpace=wrap;html=1;align=center;fontSize=18;" parent="1" vertex="1">
                    <mxGeometry x="430" y="-10" width="170" height="40" as="geometry"/>
                </mxCell>
                <mxCell id="98" value="" style="endArrow=none;html=1;rounded=0;fontSize=18;exitX=0.6;exitY=0;exitDx=0;exitDy=0;exitPerimeter=0;" parent="1" source="105" target="97" edge="1">
                    <mxGeometry relative="1" as="geometry">
                        <mxPoint x="490" y="60" as="sourcePoint"/>
                        <mxPoint x="375" y="50" as="targetPoint"/>
                    </mxGeometry>
                </mxCell>
                <mxCell id="105" value="Offer" style="shape=ext;margin=3;double=1;whiteSpace=wrap;html=1;align=center;" parent="1" vertex="1">
                    <mxGeometry x="400" y="115" width="100" height="40" as="geometry"/>
                </mxCell>
                <mxCell id="107" value="Offered" style="shape=rhombus;double=1;perimeter=rhombusPerimeter;whiteSpace=wrap;html=1;align=center;" parent="1" vertex="1">
                    <mxGeometry x="310" y="130" width="80" height="50" as="geometry"/>
                </mxCell>
                <mxCell id="108" value="Offers" style="shape=rhombus;double=1;perimeter=rhombusPerimeter;whiteSpace=wrap;html=1;align=center;" parent="1" vertex="1">
                    <mxGeometry x="520" y="110" width="90" height="50" as="geometry"/>
                </mxCell>
                <mxCell id="110" value="&lt;span style=&quot;border-bottom: 1px dotted&quot;&gt;DessertOfferedDateStart&lt;/span&gt;" style="ellipse;whiteSpace=wrap;html=1;align=center;" parent="1" vertex="1">
                    <mxGeometry x="320" y="30" width="150" height="40" as="geometry"/>
                </mxCell>
                <mxCell id="112" value="" style="endArrow=none;html=1;rounded=0;entryX=0;entryY=0.5;entryDx=0;entryDy=0;exitX=1;exitY=0.25;exitDx=0;exitDy=0;" parent="1" source="5" target="107" edge="1">
                    <mxGeometry relative="1" as="geometry">
                        <mxPoint x="270" y="160" as="sourcePoint"/>
                        <mxPoint x="430" y="160" as="targetPoint"/>
                    </mxGeometry>
                </mxCell>
                <mxCell id="113" value="1" style="resizable=0;html=1;align=right;verticalAlign=bottom;" parent="112" connectable="0" vertex="1">
                    <mxGeometry x="1" relative="1" as="geometry"/>
                </mxCell>
                <mxCell id="116" value="" style="endArrow=none;html=1;rounded=0;exitX=0;exitY=0.5;exitDx=0;exitDy=0;entryX=1;entryY=0;entryDx=0;entryDy=0;" parent="1" source="4" target="108" edge="1">
                    <mxGeometry relative="1" as="geometry">
                        <mxPoint x="540" y="100" as="sourcePoint"/>
                        <mxPoint x="700" y="100" as="targetPoint"/>
                    </mxGeometry>
                </mxCell>
                <mxCell id="117" value="1" style="resizable=0;html=1;align=right;verticalAlign=bottom;" parent="116" connectable="0" vertex="1">
                    <mxGeometry x="1" relative="1" as="geometry"/>
                </mxCell>
                <mxCell id="121" value="&lt;font style=&quot;font-size: 14px&quot;&gt;BoothTypeCode&lt;/font&gt;" style="ellipse;whiteSpace=wrap;html=1;align=center;fontStyle=4;fontFamily=Helvetica;fontSize=18;fontColor=rgb(240, 240, 240);strokeColor=rgb(240, 240, 240);fillColor=rgb(42, 42, 42);" parent="1" vertex="1">
                    <mxGeometry x="-240" y="490" width="110" height="40" as="geometry"/>
                </mxCell>
                <mxCell id="122" value="&lt;font style=&quot;font-size: 14px&quot;&gt;BoothTypeText&lt;/font&gt;" style="ellipse;whiteSpace=wrap;html=1;align=center;fontSize=18;" parent="1" vertex="1">
                    <mxGeometry x="-180" y="440" width="100" height="40" as="geometry"/>
                </mxCell>
                <mxCell id="123" value="" style="endArrow=none;html=1;rounded=0;fontSize=14;" parent="1" source="121" target="126" edge="1">
                    <mxGeometry relative="1" as="geometry">
                        <mxPoint x="410" y="470" as="sourcePoint"/>
                        <mxPoint x="570" y="470" as="targetPoint"/>
                    </mxGeometry>
                </mxCell>
                <mxCell id="124" value="" style="endArrow=none;html=1;rounded=0;fontSize=14;entryX=0.25;entryY=0;entryDx=0;entryDy=0;exitX=1;exitY=0.5;exitDx=0;exitDy=0;" parent="1" source="122" target="126" edge="1">
                    <mxGeometry relative="1" as="geometry">
                        <mxPoint x="410" y="470" as="sourcePoint"/>
                        <mxPoint x="570" y="470" as="targetPoint"/>
                    </mxGeometry>
                </mxCell>
                <mxCell id="125" value="Contains" style="shape=rhombus;perimeter=rhombusPerimeter;whiteSpace=wrap;html=1;align=center;fontFamily=Helvetica;fontSize=12;fontColor=rgb(240, 240, 240);strokeColor=rgb(240, 240, 240);fillColor=rgb(42, 42, 42);" parent="1" vertex="1">
                    <mxGeometry x="70" y="570" width="120" height="60" as="geometry"/>
                </mxCell>
                <mxCell id="126" value="&lt;span style=&quot;font-size: 14px&quot;&gt;BoothType&lt;/span&gt;" style="whiteSpace=wrap;html=1;align=center;fontFamily=Helvetica;fontSize=12;fontColor=rgb(240, 240, 240);strokeColor=rgb(240, 240, 240);fillColor=rgb(42, 42, 42);" parent="1" vertex="1">
                    <mxGeometry x="-70" y="510" width="150" height="50" as="geometry"/>
                </mxCell>
                <mxCell id="139" value="" style="shape=link;html=1;rounded=0;exitX=0.666;exitY=0.165;exitDx=0;exitDy=0;exitPerimeter=0;entryX=-0.004;entryY=0.304;entryDx=0;entryDy=0;entryPerimeter=0;" parent="1" source="107" target="105" edge="1">
                    <mxGeometry relative="1" as="geometry">
                        <mxPoint x="360" y="130" as="sourcePoint"/>
                        <mxPoint x="520" y="130" as="targetPoint"/>
                    </mxGeometry>
                </mxCell>
                <mxCell id="140" value="N" style="resizable=0;html=1;align=right;verticalAlign=bottom;" parent="139" connectable="0" vertex="1">
                    <mxGeometry x="1" relative="1" as="geometry"/>
                </mxCell>
                <mxCell id="141" value="" style="shape=link;html=1;rounded=0;exitX=1.013;exitY=0.311;exitDx=0;exitDy=0;exitPerimeter=0;entryX=0.075;entryY=0.397;entryDx=0;entryDy=0;entryPerimeter=0;" parent="1" source="105" target="108" edge="1">
                    <mxGeometry relative="1" as="geometry">
                        <mxPoint x="520" y="150" as="sourcePoint"/>
                        <mxPoint x="680" y="150" as="targetPoint"/>
                    </mxGeometry>
                </mxCell>
                <mxCell id="142" value="N" style="resizable=0;html=1;align=right;verticalAlign=bottom;" parent="141" connectable="0" vertex="1">
                    <mxGeometry x="1" relative="1" as="geometry"/>
                </mxCell>
                <mxCell id="153" value="&lt;font style=&quot;font-size: 14px&quot;&gt;RegionName&lt;/font&gt;" style="ellipse;whiteSpace=wrap;html=1;align=center;fontSize=18;" vertex="1" parent="1">
                    <mxGeometry x="855" y="290" width="90" height="40" as="geometry"/>
                </mxCell>
                <mxCell id="154" value="&lt;font style=&quot;font-size: 14px&quot;&gt;RegionCode&lt;/font&gt;" style="ellipse;whiteSpace=wrap;html=1;align=center;fontStyle=4;fontFamily=Helvetica;fontSize=18;fontColor=rgb(240, 240, 240);strokeColor=rgb(240, 240, 240);fillColor=rgb(42, 42, 42);" vertex="1" parent="1">
                    <mxGeometry x="760" y="320" width="90" height="40" as="geometry"/>
                </mxCell>
                <mxCell id="155" value="Region" style="whiteSpace=wrap;html=1;align=center;fontFamily=Helvetica;fontSize=12;fontColor=rgb(240, 240, 240);strokeColor=rgb(240, 240, 240);fillColor=rgb(42, 42, 42);" vertex="1" parent="1">
                    <mxGeometry x="760" y="250" width="100" height="40" as="geometry"/>
                </mxCell>
                <mxCell id="156" value="LocatedAt" style="shape=rhombus;perimeter=rhombusPerimeter;whiteSpace=wrap;html=1;align=center;fontFamily=Helvetica;fontSize=12;fontColor=rgb(240, 240, 240);strokeColor=rgb(240, 240, 240);fillColor=rgb(42, 42, 42);" vertex="1" parent="1">
                    <mxGeometry x="700" y="165" width="120" height="60" as="geometry"/>
                </mxCell>
                <mxCell id="157" value="" style="endArrow=none;html=1;rounded=0;exitX=0.858;exitY=1.008;exitDx=0;exitDy=0;exitPerimeter=0;entryX=0;entryY=0;entryDx=0;entryDy=0;" edge="1" parent="1" target="156" source="4">
                    <mxGeometry relative="1" as="geometry">
                        <mxPoint x="713.9000000000001" y="154.16000000000008" as="sourcePoint"/>
                        <mxPoint x="880" y="170" as="targetPoint"/>
                    </mxGeometry>
                </mxCell>
                <mxCell id="158" value="1" style="resizable=0;html=1;align=right;verticalAlign=bottom;" connectable="0" vertex="1" parent="157">
                    <mxGeometry x="1" relative="1" as="geometry">
                        <mxPoint x="60" y="60" as="offset"/>
                    </mxGeometry>
                </mxCell>
                <mxCell id="159" value="" style="endArrow=none;html=1;rounded=0;fontFamily=Helvetica;fontSize=11;fontColor=rgb(240, 240, 240);align=center;strokeColor=rgb(240, 240, 240);" edge="1" parent="1" source="156" target="155">
                    <mxGeometry relative="1" as="geometry">
                        <mxPoint x="810" y="220" as="sourcePoint"/>
                        <mxPoint x="970" y="220" as="targetPoint"/>
                        <Array as="points">
                            <mxPoint x="780" y="240"/>
                        </Array>
                    </mxGeometry>
                </mxCell>
                <mxCell id="160" value="N" style="resizable=0;html=1;align=right;verticalAlign=bottom;" connectable="0" vertex="1" parent="159">
                    <mxGeometry x="1" relative="1" as="geometry">
                        <mxPoint x="-35" y="-85" as="offset"/>
                    </mxGeometry>
                </mxCell>
                <mxCell id="161" value="" style="endArrow=none;html=1;rounded=0;exitX=0.309;exitY=1.01;exitDx=0;exitDy=0;exitPerimeter=0;" edge="1" parent="1" source="155" target="154">
                    <mxGeometry relative="1" as="geometry">
                        <mxPoint x="750" y="320" as="sourcePoint"/>
                        <mxPoint x="910" y="320" as="targetPoint"/>
                    </mxGeometry>
                </mxCell>
                <mxCell id="162" value="" style="endArrow=none;html=1;rounded=0;exitX=1;exitY=1;exitDx=0;exitDy=0;entryX=0.107;entryY=0.22;entryDx=0;entryDy=0;entryPerimeter=0;" edge="1" parent="1" source="155" target="153">
                    <mxGeometry relative="1" as="geometry">
                        <mxPoint x="850" y="280" as="sourcePoint"/>
                        <mxPoint x="1010" y="280" as="targetPoint"/>
                    </mxGeometry>
                </mxCell>
                <mxCell id="163" value="" style="endArrow=none;html=1;rounded=0;entryX=0.251;entryY=0.807;entryDx=0;entryDy=0;entryPerimeter=0;" edge="1" parent="1">
                    <mxGeometry relative="1" as="geometry">
                        <mxPoint x="700" y="100" as="sourcePoint"/>
                        <mxPoint x="760.1199999999999" y="58.419999999999845" as="targetPoint"/>
                    </mxGeometry>
                </mxCell>
                <mxCell id="164" value="1" style="resizable=0;html=1;align=right;verticalAlign=bottom;" connectable="0" vertex="1" parent="1">
                    <mxGeometry x="730.3135900710154" y="70.28610986106355" as="geometry"/>
                </mxCell>
                <mxCell id="165" value="" style="shape=link;html=1;rounded=0;exitX=1;exitY=0;exitDx=0;exitDy=0;entryX=0;entryY=0.75;entryDx=0;entryDy=0;" edge="1" parent="1" target="168">
                    <mxGeometry relative="1" as="geometry">
                        <mxPoint x="816.5" y="23.680000000000064" as="sourcePoint"/>
                        <mxPoint x="870" y="9.999999999999936" as="targetPoint"/>
                    </mxGeometry>
                </mxCell>
                <mxCell id="166" value="N" style="resizable=0;html=1;align=right;verticalAlign=bottom;" connectable="0" vertex="1" parent="165">
                    <mxGeometry x="1" relative="1" as="geometry">
                        <mxPoint x="-43" y="10" as="offset"/>
                    </mxGeometry>
                </mxCell>
                <mxCell id="167" value="har" style="shape=rhombus;double=1;perimeter=rhombusPerimeter;whiteSpace=wrap;html=1;align=center;" vertex="1" parent="1">
                    <mxGeometry x="730" y="10" width="120" height="60" as="geometry"/>
                </mxCell>
                <mxCell id="168" value="Owns" style="shape=ext;margin=3;double=1;whiteSpace=wrap;html=1;align=center;" vertex="1" parent="1">
                    <mxGeometry x="910" y="-25" width="100" height="40" as="geometry"/>
                </mxCell>
                <mxCell id="169" value="&lt;span style=&quot;border-bottom: 1px dotted&quot;&gt;Person_ID&lt;/span&gt;" style="ellipse;whiteSpace=wrap;html=1;align=center;" vertex="1" parent="1">
                    <mxGeometry x="1100" y="-55" width="100" height="40" as="geometry"/>
                </mxCell>
                <mxCell id="170" value="" style="endArrow=none;html=1;rounded=0;exitX=0.44;exitY=0.003;exitDx=0;exitDy=0;exitPerimeter=0;entryX=0.5;entryY=1;entryDx=0;entryDy=0;" edge="1" parent="1" target="169">
                    <mxGeometry relative="1" as="geometry">
                        <mxPoint x="1224" y="15.120000000000118" as="sourcePoint"/>
                        <mxPoint x="1370" y="5" as="targetPoint"/>
                    </mxGeometry>
                </mxCell>
                <mxCell id="171" value="" style="endArrow=none;html=1;rounded=0;exitX=0.799;exitY=0;exitDx=0;exitDy=0;entryX=0.499;entryY=1.06;entryDx=0;entryDy=0;entryPerimeter=0;exitPerimeter=0;" edge="1" parent="1" target="172">
                    <mxGeometry relative="1" as="geometry">
                        <mxPoint x="1259.9" y="15" as="sourcePoint"/>
                        <mxPoint x="1330.6999999999998" y="15.480000000000018" as="targetPoint"/>
                    </mxGeometry>
                </mxCell>
                <mxCell id="172" value="Owner_Fname" style="ellipse;whiteSpace=wrap;html=1;align=center;" vertex="1" parent="1">
                    <mxGeometry x="1210" y="-55" width="100" height="40" as="geometry"/>
                </mxCell>
                <mxCell id="173" value="Owner_Lname" style="ellipse;whiteSpace=wrap;html=1;align=center;" vertex="1" parent="1">
                    <mxGeometry x="1320" y="-15" width="100" height="40" as="geometry"/>
                </mxCell>
                <mxCell id="174" value="" style="endArrow=none;html=1;rounded=0;exitX=1;exitY=0.25;exitDx=0;exitDy=0;entryX=0;entryY=1;entryDx=0;entryDy=0;" edge="1" parent="1" target="173">
                    <mxGeometry relative="1" as="geometry">
                        <mxPoint x="1280" y="25" as="sourcePoint"/>
                        <mxPoint x="1430" y="75" as="targetPoint"/>
                    </mxGeometry>
                </mxCell>
                <mxCell id="175" value="Owner" style="whiteSpace=wrap;html=1;align=center;" vertex="1" parent="1">
                    <mxGeometry x="1180" y="15" width="100" height="40" as="geometry"/>
                </mxCell>
                <mxCell id="176" value="Relationship" style="shape=rhombus;double=1;perimeter=rhombusPerimeter;whiteSpace=wrap;html=1;align=center;" vertex="1" parent="1">
                    <mxGeometry x="1030" y="-10" width="120" height="60" as="geometry"/>
                </mxCell>
                <mxCell id="177" value="" style="endArrow=none;html=1;rounded=0;shadow=0;exitX=0.863;exitY=0.707;exitDx=0;exitDy=0;exitPerimeter=0;entryX=0;entryY=0.25;entryDx=0;entryDy=0;" edge="1" parent="1" source="176" target="175">
                    <mxGeometry relative="1" as="geometry">
                        <mxPoint x="1100" y="70" as="sourcePoint"/>
                        <mxPoint x="1260" y="70" as="targetPoint"/>
                    </mxGeometry>
                </mxCell>
                <mxCell id="178" value="1" style="resizable=0;html=1;align=right;verticalAlign=bottom;" connectable="0" vertex="1" parent="177">
                    <mxGeometry x="1" relative="1" as="geometry">
                        <mxPoint x="-10" y="-5" as="offset"/>
                    </mxGeometry>
                </mxCell>
                <mxCell id="179" value="" style="shape=link;html=1;rounded=0;shadow=0;exitX=1;exitY=0.5;exitDx=0;exitDy=0;entryX=0;entryY=0;entryDx=0;entryDy=0;" edge="1" parent="1" source="168" target="176">
                    <mxGeometry relative="1" as="geometry">
                        <mxPoint x="1000" y="-40" as="sourcePoint"/>
                        <mxPoint x="1160" y="-40" as="targetPoint"/>
                    </mxGeometry>
                </mxCell>
                <mxCell id="180" value="N" style="resizable=0;html=1;align=right;verticalAlign=bottom;" connectable="0" vertex="1" parent="179">
                    <mxGeometry x="1" relative="1" as="geometry"/>
                </mxCell>
                <mxCell id="181" value="&lt;font style=&quot;font-size: 14px&quot;&gt;DessertPrice&lt;/font&gt;" style="ellipse;whiteSpace=wrap;html=1;align=center;fontSize=18;" vertex="1" parent="1">
                    <mxGeometry x="10" y="50" width="100" height="40" as="geometry"/>
                </mxCell>
                <mxCell id="182" value="" style="endArrow=none;html=1;rounded=0;fontSize=18;entryX=1;entryY=0.5;entryDx=0;entryDy=0;exitX=0;exitY=0.25;exitDx=0;exitDy=0;" edge="1" parent="1" target="181">
                    <mxGeometry relative="1" as="geometry">
                        <mxPoint x="190" y="150" as="sourcePoint"/>
                        <mxPoint x="490" y="340" as="targetPoint"/>
                    </mxGeometry>
                </mxCell>
                <mxCell id="183" value="" style="endArrow=none;html=1;rounded=0;fontSize=18;entryX=1;entryY=0.5;entryDx=0;entryDy=0;exitX=0;exitY=0.5;exitDx=0;exitDy=0;" edge="1" parent="1" target="210">
                    <mxGeometry relative="1" as="geometry">
                        <mxPoint x="190" y="160" as="sourcePoint"/>
                        <mxPoint x="150" y="160" as="targetPoint"/>
                    </mxGeometry>
                </mxCell>
                <mxCell id="184" value="" style="endArrow=none;html=1;rounded=0;fontSize=18;exitX=0;exitY=1;exitDx=0;exitDy=0;entryX=1;entryY=0;entryDx=0;entryDy=0;" edge="1" parent="1" target="206">
                    <mxGeometry relative="1" as="geometry">
                        <mxPoint x="190" y="180" as="sourcePoint"/>
                        <mxPoint x="154.94999999999982" y="210" as="targetPoint"/>
                    </mxGeometry>
                </mxCell>
                <mxCell id="185" value="" style="endArrow=none;html=1;rounded=0;fontSize=18;entryX=1;entryY=0.5;entryDx=0;entryDy=0;" edge="1" parent="1" target="188">
                    <mxGeometry relative="1" as="geometry">
                        <mxPoint x="190" y="150" as="sourcePoint"/>
                        <mxPoint x="110" y="120" as="targetPoint"/>
                    </mxGeometry>
                </mxCell>
                <mxCell id="186" value="&lt;font style=&quot;font-size: 14px&quot;&gt;DrinkName&lt;br&gt;&lt;/font&gt;" style="ellipse;whiteSpace=wrap;html=1;align=center;fontSize=18;" vertex="1" parent="1">
                    <mxGeometry x="-690" y="10" width="100" height="50" as="geometry"/>
                </mxCell>
                <mxCell id="187" value="" style="endArrow=none;html=1;rounded=0;fontSize=18;entryX=1;entryY=0.5;entryDx=0;entryDy=0;exitX=0.25;exitY=0;exitDx=0;exitDy=0;startArrow=none;" edge="1" parent="1" source="194" target="186">
                    <mxGeometry relative="1" as="geometry">
                        <mxPoint x="-610" y="-30" as="sourcePoint"/>
                        <mxPoint x="30" y="60" as="targetPoint"/>
                    </mxGeometry>
                </mxCell>
                <mxCell id="188" value="Recomends" style="shape=rhombus;double=1;perimeter=rhombusPerimeter;whiteSpace=wrap;html=1;align=center;" vertex="1" parent="1">
                    <mxGeometry x="-140" y="40" width="120" height="60" as="geometry"/>
                </mxCell>
                <mxCell id="189" value="DrinkID" style="ellipse;whiteSpace=wrap;html=1;align=center;fontStyle=4;" vertex="1" parent="1">
                    <mxGeometry x="-560" y="-10" width="100" height="40" as="geometry"/>
                </mxCell>
                <mxCell id="190" value="RecomendedDrink" style="shape=ext;margin=3;double=1;whiteSpace=wrap;html=1;align=center;" vertex="1" parent="1">
                    <mxGeometry x="-300" y="55" width="120" height="40" as="geometry"/>
                </mxCell>
                <mxCell id="191" value="" style="shape=link;html=1;rounded=0;fontFamily=Helvetica;fontSize=18;fontColor=rgb(240, 240, 240);align=center;strokeColor=rgb(240, 240, 240);" edge="1" parent="1" source="188" target="190">
                    <mxGeometry relative="1" as="geometry">
                        <mxPoint x="-140" y="70" as="sourcePoint"/>
                        <mxPoint x="-490" y="185" as="targetPoint"/>
                    </mxGeometry>
                </mxCell>
                <mxCell id="192" value="Named" style="shape=rhombus;double=1;perimeter=rhombusPerimeter;whiteSpace=wrap;html=1;align=center;" vertex="1" parent="1">
                    <mxGeometry x="-460" y="60" width="120" height="60" as="geometry"/>
                </mxCell>
                <mxCell id="193" value="" style="shape=link;html=1;rounded=0;fontFamily=Helvetica;fontSize=18;fontColor=rgb(240, 240, 240);align=center;strokeColor=rgb(240, 240, 240);width=4.666666666666666;" edge="1" parent="1" source="190" target="192">
                    <mxGeometry relative="1" as="geometry">
                        <mxPoint x="-300" y="100" as="sourcePoint"/>
                        <mxPoint x="-490" y="185" as="targetPoint"/>
                    </mxGeometry>
                </mxCell>
                <mxCell id="194" value="Drink" style="whiteSpace=wrap;html=1;align=center;" vertex="1" parent="1">
                    <mxGeometry x="-600" y="60" width="100" height="40" as="geometry"/>
                </mxCell>
                <mxCell id="195" value="" style="endArrow=none;html=1;rounded=0;shadow=0;fontFamily=Helvetica;fontSize=18;fontColor=rgb(240, 240, 240);align=center;strokeColor=rgb(240, 240, 240);" edge="1" parent="1" source="192" target="194">
                    <mxGeometry relative="1" as="geometry">
                        <mxPoint x="-440" y="135" as="sourcePoint"/>
                        <mxPoint x="-490" y="185" as="targetPoint"/>
                    </mxGeometry>
                </mxCell>
                <mxCell id="196" value="" style="endArrow=none;html=1;rounded=0;entryX=0.75;entryY=0;entryDx=0;entryDy=0;" edge="1" parent="1" source="189" target="194">
                    <mxGeometry relative="1" as="geometry">
                        <mxPoint x="-680" y="-65" as="sourcePoint"/>
                        <mxPoint x="-520" y="-65" as="targetPoint"/>
                    </mxGeometry>
                </mxCell>
                <mxCell id="197" value="N" style="resizable=0;html=1;align=right;verticalAlign=bottom;" connectable="0" vertex="1" parent="1">
                    <mxGeometry x="-160" y="70" as="geometry"/>
                </mxCell>
                <mxCell id="198" value="N" style="resizable=0;html=1;align=right;verticalAlign=bottom;" connectable="0" vertex="1" parent="1">
                    <mxGeometry x="-330" y="80" as="geometry"/>
                </mxCell>
                <mxCell id="199" value="1" style="text;strokeColor=none;fillColor=none;spacingLeft=4;spacingRight=4;overflow=hidden;rotatable=0;points=[[0,0.5],[1,0.5]];portConstraint=eastwest;fontSize=12;" vertex="1" parent="1">
                    <mxGeometry x="-490" y="55" width="40" height="30" as="geometry"/>
                </mxCell>
                <mxCell id="200" value="1" style="resizable=0;html=1;align=right;verticalAlign=bottom;" connectable="0" vertex="1" parent="1">
                    <mxGeometry x="-9.66406485051175" y="70.13780791956833" as="geometry"/>
                </mxCell>
                <mxCell id="201" value="&lt;font style=&quot;font-size: 14px&quot;&gt;DessertCategoryName&lt;/font&gt;" style="ellipse;whiteSpace=wrap;html=1;align=center;fontSize=18;" vertex="1" parent="1">
                    <mxGeometry x="-250" y="270" width="150" height="40" as="geometry"/>
                </mxCell>
                <mxCell id="202" value="" style="endArrow=none;html=1;rounded=0;fontSize=18;exitX=0;exitY=0.5;exitDx=0;exitDy=0;entryX=0.933;entryY=0.25;entryDx=0;entryDy=0;entryPerimeter=0;" edge="1" parent="1" source="203" target="201">
                    <mxGeometry relative="1" as="geometry">
                        <mxPoint x="80" y="400" as="sourcePoint"/>
                        <mxPoint x="90" y="240" as="targetPoint"/>
                    </mxGeometry>
                </mxCell>
                <mxCell id="203" value="DessertCategory" style="whiteSpace=wrap;html=1;align=center;" vertex="1" parent="1">
                    <mxGeometry x="-80" y="250" width="100" height="40" as="geometry"/>
                </mxCell>
                <mxCell id="204" value="DessertCategoryID" style="ellipse;whiteSpace=wrap;html=1;align=center;fontStyle=4;" vertex="1" parent="1">
                    <mxGeometry x="-180" y="340" width="120" height="40" as="geometry"/>
                </mxCell>
                <mxCell id="205" value="" style="endArrow=none;html=1;rounded=0;exitX=0.833;exitY=0;exitDx=0;exitDy=0;exitPerimeter=0;entryX=0.25;entryY=1;entryDx=0;entryDy=0;" edge="1" parent="1" source="204" target="203">
                    <mxGeometry relative="1" as="geometry">
                        <mxPoint x="30" y="250" as="sourcePoint"/>
                        <mxPoint x="190" y="250" as="targetPoint"/>
                    </mxGeometry>
                </mxCell>
                <mxCell id="206" value="belongsto" style="shape=rhombus;perimeter=rhombusPerimeter;whiteSpace=wrap;html=1;align=center;" vertex="1" parent="1">
                    <mxGeometry x="40" y="190" width="120" height="60" as="geometry"/>
                </mxCell>
                <mxCell id="207" value="N" style="resizable=0;html=1;align=right;verticalAlign=bottom;" connectable="0" vertex="1" parent="1">
                    <mxGeometry x="169.7802197802198" y="190.09157509157512" as="geometry"/>
                </mxCell>
                <mxCell id="208" value="" style="shape=link;html=1;rounded=0;exitX=1;exitY=0.25;exitDx=0;exitDy=0;" edge="1" parent="1" source="203" target="206">
                    <mxGeometry relative="1" as="geometry">
                        <mxPoint x="50" y="280" as="sourcePoint"/>
                        <mxPoint x="100" y="310" as="targetPoint"/>
                    </mxGeometry>
                </mxCell>
                <mxCell id="209" value="1" style="resizable=0;html=1;align=right;verticalAlign=bottom;" connectable="0" vertex="1" parent="208">
                    <mxGeometry x="1" relative="1" as="geometry">
                        <mxPoint x="-30" y="15" as="offset"/>
                    </mxGeometry>
                </mxCell>
                <mxCell id="210" value="Recomends" style="shape=rhombus;double=1;perimeter=rhombusPerimeter;whiteSpace=wrap;html=1;align=center;" vertex="1" parent="1">
                    <mxGeometry x="-70" y="140" width="120" height="60" as="geometry"/>
                </mxCell>
                <mxCell id="211" value="ToppingID" style="ellipse;whiteSpace=wrap;html=1;align=center;fontStyle=4;" vertex="1" parent="1">
                    <mxGeometry x="-680" y="135" width="100" height="40" as="geometry"/>
                </mxCell>
                <mxCell id="212" value="RecomendedTop" style="shape=ext;margin=3;double=1;whiteSpace=wrap;html=1;align=center;" vertex="1" parent="1">
                    <mxGeometry x="-230" y="155" width="110" height="40" as="geometry"/>
                </mxCell>
                <mxCell id="213" value="" style="shape=link;html=1;rounded=0;fontFamily=Helvetica;fontSize=18;fontColor=rgb(240, 240, 240);align=center;strokeColor=rgb(240, 240, 240);" edge="1" parent="1" source="210" target="212">
                    <mxGeometry relative="1" as="geometry">
                        <mxPoint x="-70" y="170" as="sourcePoint"/>
                        <mxPoint x="-420" y="285" as="targetPoint"/>
                    </mxGeometry>
                </mxCell>
                <mxCell id="214" value="Named" style="shape=rhombus;double=1;perimeter=rhombusPerimeter;whiteSpace=wrap;html=1;align=center;" vertex="1" parent="1">
                    <mxGeometry x="-390" y="160" width="120" height="60" as="geometry"/>
                </mxCell>
                <mxCell id="215" value="" style="shape=link;html=1;rounded=0;fontFamily=Helvetica;fontSize=18;fontColor=rgb(240, 240, 240);align=center;strokeColor=rgb(240, 240, 240);width=4.666666666666666;" edge="1" parent="1" source="212" target="214">
                    <mxGeometry relative="1" as="geometry">
                        <mxPoint x="-230" y="200" as="sourcePoint"/>
                        <mxPoint x="-420" y="285" as="targetPoint"/>
                    </mxGeometry>
                </mxCell>
                <mxCell id="216" value="Topping" style="whiteSpace=wrap;html=1;align=center;" vertex="1" parent="1">
                    <mxGeometry x="-530" y="160" width="100" height="40" as="geometry"/>
                </mxCell>
                <mxCell id="217" value="" style="endArrow=none;html=1;rounded=0;shadow=0;fontFamily=Helvetica;fontSize=18;fontColor=rgb(240, 240, 240);align=center;strokeColor=rgb(240, 240, 240);" edge="1" parent="1" source="214" target="216">
                    <mxGeometry relative="1" as="geometry">
                        <mxPoint x="-370" y="235" as="sourcePoint"/>
                        <mxPoint x="-420" y="285" as="targetPoint"/>
                    </mxGeometry>
                </mxCell>
                <mxCell id="218" value="" style="endArrow=none;html=1;rounded=0;entryX=-0.019;entryY=0.399;entryDx=0;entryDy=0;entryPerimeter=0;" edge="1" parent="1" source="211" target="216">
                    <mxGeometry relative="1" as="geometry">
                        <mxPoint x="-620" y="130" as="sourcePoint"/>
                        <mxPoint x="-460" y="130" as="targetPoint"/>
                    </mxGeometry>
                </mxCell>
                <mxCell id="219" value="N" style="resizable=0;html=1;align=right;verticalAlign=bottom;" connectable="0" vertex="1" parent="1">
                    <mxGeometry x="-90" y="170" as="geometry"/>
                </mxCell>
                <mxCell id="220" value="N" style="resizable=0;html=1;align=right;verticalAlign=bottom;" connectable="0" vertex="1" parent="1">
                    <mxGeometry x="-260" y="180" as="geometry"/>
                </mxCell>
                <mxCell id="221" value="1" style="text;strokeColor=none;fillColor=none;spacingLeft=4;spacingRight=4;overflow=hidden;rotatable=0;points=[[0,0.5],[1,0.5]];portConstraint=eastwest;fontSize=12;" vertex="1" parent="1">
                    <mxGeometry x="-420" y="155" width="40" height="30" as="geometry"/>
                </mxCell>
                <mxCell id="222" value="1" style="text;strokeColor=none;fillColor=none;spacingLeft=4;spacingRight=4;overflow=hidden;rotatable=0;points=[[0,0.5],[1,0.5]];portConstraint=eastwest;fontSize=12;" vertex="1" parent="1">
                    <mxGeometry x="70" y="140" width="40" height="30" as="geometry"/>
                </mxCell>
                <mxCell id="223" value="&lt;font style=&quot;font-size: 14px&quot;&gt;DrinkName&lt;br&gt;&lt;/font&gt;" style="ellipse;whiteSpace=wrap;html=1;align=center;fontSize=18;" vertex="1" parent="1">
                    <mxGeometry x="-660" y="210" width="100" height="50" as="geometry"/>
                </mxCell>
                <mxCell id="224" value="" style="endArrow=none;html=1;rounded=0;shadow=0;exitX=0.91;exitY=0.156;exitDx=0;exitDy=0;exitPerimeter=0;entryX=0;entryY=1;entryDx=0;entryDy=0;" edge="1" parent="1" source="223" target="216">
                    <mxGeometry relative="1" as="geometry">
                        <mxPoint x="-570" y="220" as="sourcePoint"/>
                        <mxPoint x="-410" y="220" as="targetPoint"/>
                    </mxGeometry>
                </mxCell>
                <mxCell id="225" value="" style="endArrow=none;html=1;rounded=0;entryX=0;entryY=0.25;entryDx=0;entryDy=0;" edge="1" parent="1" source="125" target="3">
                    <mxGeometry relative="1" as="geometry">
                        <mxPoint x="140" y="610" as="sourcePoint"/>
                        <mxPoint x="300" y="610" as="targetPoint"/>
                    </mxGeometry>
                </mxCell>
                <mxCell id="226" value="N" style="resizable=0;html=1;align=right;verticalAlign=bottom;" connectable="0" vertex="1" parent="225">
                    <mxGeometry x="1" relative="1" as="geometry"/>
                </mxCell>
                <mxCell id="227" value="" style="endArrow=none;html=1;rounded=0;fontFamily=Helvetica;fontSize=11;fontColor=rgb(240, 240, 240);align=center;strokeColor=rgb(240, 240, 240);" edge="1" parent="1" source="126" target="125">
                    <mxGeometry relative="1" as="geometry">
                        <mxPoint x="-20" y="570" as="sourcePoint"/>
                        <mxPoint x="140" y="570" as="targetPoint"/>
                    </mxGeometry>
                </mxCell>
                <mxCell id="228" value="1" style="resizable=0;html=1;align=right;verticalAlign=bottom;" connectable="0" vertex="1" parent="227">
                    <mxGeometry x="1" relative="1" as="geometry"/>
                </mxCell>
            </root>
        </mxGraphModel>
    </diagram>
</mxfile>